<svg xmlns="http://www.w3.org/2000/svg" xmlns:xlink="http://www.w3.org/1999/xlink" width="25" height="25" viewBox="0 0 25 25" fill="none">
<path    stroke="rgba(147, 112, 219, 1)" stroke-width="2" stroke-linejoin="round" stroke-linecap="round"  d="M5.13498 9.37931C3.24993 10.9418 2.08325 12.5 2.08325 12.5C2.08325 12.5 6.74408 18.75 12.497 18.75C13.2105 18.75 13.9101 18.6511 14.5833 18.4828M10.4367 6.50862C11.1047 6.34279 11.7894 6.25 12.497 6.25C18.25 6.25 22.9195 12.5 22.9195 12.5C22.9195 12.5 21.7528 14.0668 19.8677 15.6293">
</path>
<path    stroke="rgba(147, 112, 219, 1)" stroke-width="2" stroke-linejoin="round" stroke-linecap="round"  d="M10.5802 10.7402C10.1552 11.2037 9.89575 11.8215 9.89575 12.5C9.89575 13.9382 11.0617 15.1041 12.4999 15.1041C13.2097 15.1041 13.8531 14.8202 14.3228 14.3597">
</path>
<path    stroke="rgba(147, 112, 219, 1)" stroke-width="2" stroke-linejoin="round" stroke-linecap="round"  d="M21.875 21.875L3.125 3.125">
</path>
</svg>
