<svg xmlns="http://www.w3.org/2000/svg" xmlns:xlink="http://www.w3.org/1999/xlink" width="9.005859375" height="8.94427490234375" viewBox="0 0 9.005859375 8.94427490234375" fill="none">
<path d="M4.46822 0.0625711C4.37512 0.0218654 4.27394 0 4.17 0C3.74767 0 3.4 0.34794 3.4 0.77L3.4 3.17L0.76 3.17C0.557581 3.17 0.362443 3.24618 0.22 3.39C0.07839 3.53382 0 3.72743 0 3.93C0 4.26449 0.220096 4.55741 0.52233 4.66054C0.605505 4.69248 0.695635 4.71 0.7898 4.71L7.5998 4.71C8.0158 4.71 8.3498 4.35595 8.3498 3.94C8.3498 3.73743 8.27207 3.54382 8.1298 3.4C8.0575 3.32648 7.97083 3.27063 7.87637 3.2336C7.77718 3.19156 7.66891 3.17 7.56 3.17L4.9598 3.17L4.9598 0.78C4.9598 0.455063 4.75484 0.174973 4.46822 0.0625711ZM4.2002 5.7901C4.40384 5.7901 4.60112 5.88085 4.7402 6.0301C4.87912 6.1791 4.9402 6.37635 4.9402 6.5801L4.9402 7.5501C4.9402 7.75335 4.84861 7.9416 4.7002 8.0801C4.55194 8.21885 4.35293 8.2901 4.1502 8.2901C3.73006 8.2711 3.4102 7.92135 3.4102 7.5001L3.4102 6.5301C3.4102 6.32685 3.50179 6.1386 3.6502 6.0001C3.79846 5.86135 3.99748 5.7901 4.2002 5.7901Z" fill-rule="evenodd"  fill="#F5F5F5" >
</path>
</svg>
